<svg viewBox="0 0 197.42 48.61" xmlns="http://www.w3.org/2000/svg" xmlns:xlink="http://www.w3.org/1999/xlink" id="Layer_1" overflow="hidden"><defs></defs><g id="Layer_2"><g id="Layer_1-2"><path d="M31.41 0 0 0 0 9.73 10.85 9.73 10.85 48.49 20.57 48.49 20.57 9.73 31.41 9.73 31.41 0Z" fill="#FFFFFF"></path><path d="M53.69 48.61 44 48.61 44 0 53.73 0Z" fill="#FFFFFF"></path><path d="M79.87 0 102.68 31.93 102.68 0 112.42 0 112.42 48.61 102.65 48.61 78.65 15.38 78.65 48.61 69 48.61 69 0Z" fill="#FFFFFF"></path><path d="M141.99 0 124.44 24.3 141.95 48.57 153.81 48.61 136.19 24.3 153.81 0 141.99 0Z" fill="#FFFFFF"></path><path d="M197.42 48.49 185.54 48.49 174.11 32.74 174 32.74 174 48.49 164.28 48.49 164.28 0 177.46 0C187.31 0 194.07 5.71 194.07 16.36 194.07 22.71 191.19 27.56 184.62 31.1ZM174 22.94 175.26 22.94C180.63 22.94 184.4 21.28 184.4 16.86 184.4 10.73 180.5 9.78 175.33 9.78L174 9.78Z" fill="#FFFFFF"></path></g></g></svg>